<svg id="svg" version="1.1" xmlns="http://www.w3.org/2000/svg" xmlns:xlink="http://www.w3.org/1999/xlink" width="400" height="165.62677254679522" viewBox="0, 0, 400,165.62677254679522"><g id="svgg"><path id="path0" d="M17.583 0.673 C 9.713 1.393,3.300 6.505,0.946 13.934 C 0.026 16.835,0.089 12.107,0.040 82.000 L -0.004 146.083 0.342 148.163 C 1.667 156.145,6.463 161.439,14.583 163.884 L 15.750 164.235 199.250 164.287 C 368.721 164.335,382.858 164.318,384.167 164.066 C 392.102 162.535,398.112 156.437,399.426 148.583 C 399.757 146.603,399.757 18.397,399.426 16.417 C 398.123 8.624,392.553 2.877,384.441 0.957 L 382.917 0.596 200.917 0.574 C 100.817 0.561,18.317 0.606,17.583 0.673 M384.417 1.775 C 392.150 3.753,397.610 9.499,398.660 16.766 C 398.890 18.351,398.890 146.649,398.660 148.234 C 397.650 155.222,392.731 160.644,385.223 163.044 L 384.083 163.408 200.426 163.455 L 16.769 163.501 15.093 163.096 C 7.655 161.296,2.478 155.731,1.149 148.105 C 0.652 145.254,0.656 20.007,1.153 16.960 C 2.545 8.424,9.098 2.259,17.583 1.503 C 18.317 1.437,100.854 1.395,201.000 1.409 L 383.083 1.434 384.417 1.775 M139.667 8.161 C 134.442 9.140,130.653 12.585,129.030 17.833 L 128.592 19.250 128.496 68.000 C 128.409 112.586,128.378 116.854,128.125 117.962 C 124.856 132.299,107.120 137.333,96.874 126.833 C 93.533 123.410,91.976 119.470,91.765 113.900 C 91.453 105.720,87.032 100.651,79.444 99.777 C 69.868 98.672,62.842 104.795,62.835 114.250 C 62.833 115.848,63.441 122.376,63.657 123.083 C 63.741 123.358,63.860 123.921,63.922 124.333 C 65.632 135.784,75.115 148.761,86.562 155.314 C 98.399 162.091,115.109 163.138,128.083 157.917 C 144.494 151.313,155.944 135.725,157.161 118.333 C 157.387 115.104,157.387 21.409,157.161 19.667 C 156.465 14.299,152.704 10.009,147.351 8.478 C 145.957 8.079,141.161 7.882,139.667 8.161 M218.167 8.118 C 216.791 8.229,212.598 8.835,211.417 9.095 C 208.556 9.724,203.513 11.180,203.083 11.501 C 202.992 11.570,202.729 11.681,202.500 11.748 C 201.268 12.110,197.530 13.978,194.954 15.520 C 188.520 19.371,182.227 25.336,177.911 31.675 C 177.116 32.842,174.500 37.236,174.500 37.403 C 174.500 37.436,174.172 38.164,173.772 39.023 C 171.445 44.012,170.035 49.137,169.214 55.583 C 168.738 59.321,168.755 148.069,169.232 150.083 C 170.811 156.749,175.869 160.583,183.083 160.583 C 190.736 160.583,195.525 157.159,197.301 150.417 C 197.537 149.522,197.576 144.669,197.673 104.333 C 197.748 73.389,197.838 58.963,197.961 58.333 C 202.381 35.640,231.005 28.880,244.533 47.333 C 249.318 53.861,250.928 64.257,248.177 70.861 C 248.088 71.075,247.811 71.775,247.563 72.417 C 245.514 77.708,240.358 83.194,234.917 85.875 C 231.366 87.625,228.636 88.255,223.550 88.499 C 218.284 88.752,215.465 89.903,212.684 92.938 C 207.569 98.520,208.050 108.713,213.667 113.766 C 217.013 116.777,220.250 117.587,227.333 117.186 C 239.554 116.494,249.643 112.487,259.250 104.508 C 264.281 100.329,269.839 93.242,272.838 87.180 C 275.663 81.470,276.840 77.344,278.025 69.000 C 278.579 65.103,278.170 54.658,277.334 51.333 C 277.253 51.012,276.987 49.858,276.742 48.768 C 276.297 46.790,275.208 43.219,274.745 42.225 C 274.610 41.936,274.500 41.647,274.500 41.583 C 274.500 40.784,270.950 34.171,269.104 31.529 C 259.506 17.805,245.985 9.911,229.083 8.164 C 227.677 8.019,219.820 7.986,218.167 8.118 M221.460 122.894 C 217.101 124.517,219.136 130.887,223.627 129.677 C 226.046 129.026,226.934 125.695,225.199 123.777 C 224.416 122.911,222.580 122.477,221.460 122.894 M258.131 126.125 C 257.352 127.018,257.458 127.381,259.034 129.204 C 259.996 130.317,259.995 130.348,258.960 131.616 C 257.435 133.483,252.649 139.465,248.251 145.000 C 247.049 146.512,244.870 149.247,243.408 151.077 C 240.088 155.232,240.346 154.747,240.339 156.838 C 240.332 159.015,240.510 159.377,241.553 159.300 C 242.455 159.234,242.660 158.826,242.667 157.083 L 242.672 155.750 244.345 153.667 C 245.265 152.521,246.202 151.398,246.426 151.170 L 246.833 150.758 246.833 154.694 C 246.833 158.321,246.858 158.661,247.152 159.023 L 247.471 159.417 261.384 159.417 C 274.833 159.417,275.310 159.406,275.649 159.099 C 275.987 158.794,276.000 158.634,276.000 154.919 C 276.000 152.794,276.046 151.009,276.103 150.952 C 276.244 150.812,276.348 150.928,278.385 153.490 L 280.167 155.731 280.167 156.954 C 280.167 158.445,280.484 159.325,281.033 159.353 C 282.343 159.421,282.667 158.927,282.666 156.866 C 282.665 154.827,283.616 156.247,275.170 145.679 C 273.014 142.982,270.960 140.400,270.604 139.941 C 270.249 139.481,269.407 138.426,268.733 137.594 C 268.058 136.763,267.111 135.575,266.628 134.953 C 266.145 134.332,265.637 133.693,265.500 133.533 C 262.888 130.499,262.856 130.385,264.167 128.820 C 265.298 127.469,265.461 126.788,264.802 126.173 C 264.078 125.499,263.475 125.814,262.166 127.550 C 261.429 128.527,261.535 128.554,260.333 127.083 C 259.240 125.745,258.676 125.500,258.131 126.125 M299.167 130.841 C 295.192 131.064,292.400 131.805,291.968 132.753 C 291.762 133.206,291.787 133.562,292.416 139.000 C 292.549 140.146,292.736 141.997,292.832 143.114 C 292.928 144.231,293.119 146.068,293.255 147.197 C 294.001 153.372,294.197 155.053,294.330 156.391 C 294.497 158.069,294.677 158.366,295.833 158.871 C 298.036 159.833,301.695 159.887,304.674 159.002 C 306.568 158.439,306.653 158.199,307.255 151.750 C 307.391 150.283,307.577 148.408,307.668 147.583 C 308.125 143.420,308.534 139.883,308.766 138.083 C 309.223 134.542,309.269 132.137,308.886 131.794 C 308.062 131.057,303.427 130.603,299.167 130.841 M219.083 131.111 C 218.406 131.469,218.008 131.827,217.662 132.388 C 217.313 132.953,215.024 133.059,213.337 132.587 C 211.646 132.115,209.943 132.804,209.260 134.235 C 208.522 135.782,208.145 141.388,208.708 142.438 C 209.805 144.483,212.514 144.960,214.411 143.443 C 215.043 142.938,215.985 142.429,216.091 142.535 C 216.210 142.656,215.843 146.022,215.613 146.917 C 215.472 147.467,215.303 148.292,215.239 148.750 C 215.174 149.208,215.052 149.770,214.967 149.998 C 214.881 150.225,214.708 150.863,214.581 151.414 C 214.285 152.704,213.789 154.585,213.328 156.167 C 212.550 158.835,213.051 160.000,214.978 160.000 C 216.644 160.000,217.113 159.005,218.665 152.167 C 219.876 146.832,219.707 146.986,221.158 149.898 C 222.274 152.139,222.744 154.267,222.581 156.333 C 222.418 158.385,222.424 158.548,222.683 159.075 C 223.194 160.120,224.861 160.681,225.740 160.105 C 227.620 158.874,226.462 149.422,224.094 146.667 C 223.275 145.713,223.027 144.939,223.259 144.058 C 223.383 143.586,223.603 142.292,223.748 141.182 C 224.072 138.702,224.113 138.571,224.479 138.886 C 225.556 139.813,229.681 141.667,230.669 141.667 C 232.784 141.667,233.220 138.297,231.188 137.654 C 228.332 136.750,225.214 134.565,223.858 132.517 C 222.815 130.940,220.627 130.295,219.083 131.111 M306.906 131.412 C 310.621 132.300,308.402 133.572,302.348 134.025 C 294.404 134.619,289.744 132.672,296.305 131.501 C 299.480 130.934,304.723 130.890,306.906 131.412 M347.222 131.664 L 323.527 131.750 323.082 132.167 C 322.323 132.878,321.515 135.214,320.429 139.833 C 319.439 144.050,318.959 155.692,319.753 156.272 C 320.093 156.521,325.405 156.608,325.778 156.371 C 325.886 156.303,326.179 155.648,326.429 154.915 C 328.982 147.458,339.186 148.070,340.746 155.775 C 340.817 156.123,340.976 156.332,341.218 156.397 C 341.811 156.557,367.061 156.509,367.315 156.348 C 367.442 156.267,367.715 155.672,367.920 155.025 C 370.266 147.624,380.276 148.005,382.180 155.567 C 382.409 156.477,382.468 156.495,385.200 156.498 C 387.264 156.500,388.165 156.328,388.168 155.932 C 388.168 155.832,388.286 155.525,388.429 155.250 C 388.985 154.185,389.617 150.701,389.413 149.833 C 389.359 149.604,389.046 149.188,388.719 148.909 C 388.159 148.431,388.115 148.321,387.992 147.075 C 387.729 144.417,385.796 141.758,383.396 140.753 C 382.827 140.515,382.262 139.983,379.748 137.321 C 378.832 136.352,377.483 134.925,376.750 134.149 C 374.896 132.188,373.382 131.428,371.559 131.539 C 371.206 131.561,360.254 131.617,347.222 131.664 M262.167 133.121 C 262.487 133.549,265.207 136.976,268.211 140.736 L 273.672 147.573 273.627 152.328 L 273.583 157.083 269.938 157.128 C 267.389 157.160,266.223 157.116,266.063 156.983 C 265.881 156.832,265.833 156.040,265.833 153.157 C 265.833 149.279,265.786 148.993,264.983 147.979 C 263.403 145.984,259.615 145.966,257.937 147.946 C 257.105 148.927,257.015 149.439,257.007 153.258 C 257.002 155.756,256.942 156.824,256.800 156.967 C 256.517 157.250,249.650 157.250,249.367 156.967 C 249.221 156.821,249.167 155.538,249.167 152.240 L 249.167 147.713 249.663 147.065 C 249.936 146.708,250.259 146.304,250.382 146.167 C 250.504 146.029,250.975 145.429,251.427 144.833 C 251.880 144.237,252.288 143.712,252.335 143.667 C 252.382 143.621,253.286 142.496,254.344 141.167 C 261.712 131.912,261.372 132.331,261.495 132.338 C 261.544 132.341,261.846 132.694,262.167 133.121 M341.000 136.917 L 341.000 140.333 333.458 140.331 C 324.711 140.328,325.075 140.386,325.099 138.994 C 325.117 137.973,325.656 135.407,326.051 134.466 C 326.432 133.558,326.659 133.532,334.208 133.515 L 341.000 133.500 341.000 136.917 M359.204 133.963 C 359.789 134.548,359.789 139.284,359.204 139.870 L 358.824 140.250 350.995 140.296 L 343.167 140.343 343.167 136.915 L 343.167 133.488 350.996 133.535 L 358.824 133.583 359.204 133.963 M373.415 133.760 C 374.207 134.136,380.500 140.409,380.500 140.822 C 380.500 141.463,380.024 141.522,375.261 141.468 L 370.703 141.417 369.949 140.875 C 369.204 140.339,369.175 140.333,367.285 140.333 C 363.897 140.333,363.833 140.271,363.833 136.944 C 363.833 133.346,363.612 133.500,368.778 133.500 C 372.140 133.500,372.964 133.546,373.415 133.760 M307.967 134.200 C 308.389 134.623,308.178 135.208,307.250 136.181 C 306.101 137.385,306.039 137.923,306.917 139.072 C 307.765 140.183,307.696 141.000,306.753 141.000 C 304.000 141.000,303.264 144.930,305.923 145.429 C 306.851 145.603,306.912 145.788,306.682 147.715 C 306.310 150.822,306.478 150.457,304.689 152.017 C 304.010 152.608,304.228 154.084,305.140 155.073 C 306.056 156.067,305.929 156.334,304.294 156.861 C 301.557 157.741,295.533 157.199,295.366 156.057 C 295.325 155.774,295.429 155.694,295.950 155.610 C 297.528 155.354,298.344 153.476,297.453 152.150 C 297.084 151.601,296.941 151.537,295.417 151.235 C 295.233 151.199,294.993 151.110,294.881 151.037 C 294.685 150.909,294.288 147.894,294.262 146.333 L 294.250 145.583 295.333 145.497 C 296.714 145.387,297.119 145.151,297.532 144.215 C 298.333 142.407,296.852 140.716,294.959 141.277 C 293.487 141.715,293.279 141.257,294.320 139.872 C 295.432 138.392,295.288 137.014,293.936 136.178 C 292.845 135.504,292.774 133.933,293.860 134.514 C 295.242 135.254,306.672 134.884,307.482 134.073 C 307.605 133.951,307.757 133.990,307.967 134.200 M216.845 135.006 C 217.436 135.322,216.963 139.607,216.285 140.082 C 215.648 140.528,215.611 140.411,215.760 138.458 C 215.839 137.427,215.900 136.190,215.896 135.708 C 215.889 134.769,216.104 134.610,216.845 135.006 M293.925 136.774 C 294.658 137.565,294.300 139.590,293.449 139.469 C 293.123 139.422,293.069 139.277,292.945 138.116 C 292.758 136.352,293.100 135.884,293.925 136.774 M302.333 136.770 C 300.465 137.940,301.161 140.995,303.298 140.999 C 305.537 141.003,306.493 138.234,304.731 136.848 C 304.192 136.424,302.950 136.384,302.333 136.770 M296.883 136.993 C 295.395 137.901,295.512 140.160,297.086 140.907 C 298.941 141.787,300.908 139.865,300.110 137.954 C 299.618 136.777,298.019 136.301,296.883 136.993 M308.027 137.836 C 307.965 139.036,307.813 139.329,307.424 139.006 C 306.879 138.554,307.203 136.585,307.803 136.701 C 308.038 136.746,308.074 136.928,308.027 137.836 M304.591 137.506 C 305.608 138.350,304.902 140.333,303.585 140.333 C 301.850 140.333,301.151 138.596,302.435 137.476 C 302.983 136.998,303.995 137.012,304.591 137.506 M298.998 137.499 C 299.789 137.922,299.759 139.683,298.950 140.249 C 298.288 140.713,296.858 140.405,296.604 139.743 C 296.003 138.177,297.552 136.725,298.998 137.499 M13.167 138.944 C 11.849 139.182,10.674 140.680,10.669 142.128 C 10.666 143.219,11.026 143.816,12.651 145.412 C 14.087 146.824,14.084 146.730,12.742 148.028 C 10.276 150.413,9.971 152.256,11.776 153.869 C 13.526 155.432,14.873 154.990,18.024 151.818 C 22.810 147.000,22.831 146.664,18.606 142.370 C 15.298 139.008,14.745 138.660,13.167 138.944 M27.006 138.949 C 26.311 139.091,25.181 139.984,24.832 140.669 C 24.059 142.185,24.478 143.429,26.404 145.329 C 27.943 146.847,27.943 146.678,26.389 148.273 C 24.106 150.615,23.855 152.223,25.528 153.784 C 27.316 155.452,28.663 155.034,31.857 151.818 C 36.644 147.000,36.664 146.664,32.439 142.370 C 29.134 139.011,28.538 138.636,27.006 138.949 M296.569 142.179 C 297.914 143.779,296.005 145.893,294.461 144.514 C 293.764 143.890,293.706 142.751,294.337 142.080 C 294.930 141.448,295.993 141.496,296.569 142.179 M306.548 142.002 C 307.568 142.805,307.118 144.833,305.920 144.833 C 304.919 144.833,304.453 142.959,305.242 142.108 C 305.732 141.579,305.984 141.558,306.548 142.002 M300.012 142.125 C 297.945 143.179,298.645 146.333,300.947 146.333 C 301.640 146.333,302.481 145.872,302.829 145.302 C 304.011 143.363,302.009 141.107,300.012 142.125 M359.136 142.703 C 359.202 143.275,358.888 143.366,357.085 143.299 C 355.956 143.258,355.745 143.204,355.696 142.949 C 355.559 142.229,355.741 142.152,357.455 142.202 L 359.083 142.250 359.136 142.703 M367.250 142.750 L 367.250 143.250 365.775 143.298 C 364.236 143.349,363.833 143.216,363.833 142.660 C 363.833 142.235,364.061 142.183,365.750 142.218 L 367.250 142.250 367.250 142.750 M301.965 142.798 C 303.591 143.861,301.906 146.523,300.253 145.502 C 299.315 144.922,299.105 144.258,299.575 143.350 C 300.047 142.438,301.057 142.204,301.965 142.798 M297.368 146.614 C 297.158 146.657,296.736 146.941,296.431 147.247 C 294.359 149.319,297.369 152.379,299.493 150.359 C 301.198 148.738,299.720 146.133,297.368 146.614 M302.400 146.816 C 301.755 147.210,301.271 148.332,301.429 149.065 C 301.998 151.692,305.833 151.371,305.833 148.697 C 305.833 146.909,303.945 145.874,302.400 146.816 M304.784 147.532 C 305.671 148.366,304.943 150.333,303.747 150.333 C 303.159 150.333,302.406 149.876,302.181 149.381 C 301.442 147.760,303.483 146.310,304.784 147.532 M299.208 147.830 C 299.791 148.476,299.801 149.148,299.240 149.815 C 298.393 150.822,297.076 150.621,296.569 149.409 C 295.842 147.669,297.935 146.417,299.208 147.830 M262.883 149.209 C 263.536 149.732,263.658 150.457,263.663 153.842 C 263.667 157.373,263.801 157.167,261.508 157.164 C 259.117 157.161,259.305 157.497,259.365 153.345 L 259.417 149.805 259.961 149.319 C 260.683 148.674,262.147 148.619,262.883 149.209 M331.520 151.516 C 327.831 152.636,326.574 157.862,329.321 160.666 C 333.591 165.027,340.634 160.907,338.806 155.118 C 337.891 152.218,334.588 150.585,331.520 151.516 M373.009 151.521 C 370.675 152.220,369.028 155.123,369.466 157.766 C 370.592 164.557,380.540 163.796,380.573 156.917 C 380.593 152.923,376.966 150.336,373.009 151.521 M296.888 152.007 C 297.474 152.468,297.623 153.324,297.233 153.984 C 296.628 155.008,295.263 154.974,294.764 153.923 C 294.055 152.428,295.624 151.013,296.888 152.007 M306.042 152.673 C 305.973 154.226,305.853 154.667,305.502 154.667 C 304.751 154.667,304.391 153.144,304.949 152.329 C 305.645 151.312,306.097 151.454,306.042 152.673 M300.078 152.492 C 299.232 152.921,298.833 153.585,298.833 154.567 C 298.833 156.811,302.075 157.461,303.051 155.413 C 303.995 153.435,302.028 151.503,300.078 152.492 M40.521 152.692 C 38.145 153.375,37.617 156.736,39.643 158.286 L 40.250 158.750 50.083 158.800 C 60.963 158.854,60.761 158.866,61.612 158.119 C 63.446 156.509,62.838 153.296,60.583 152.683 C 59.726 152.450,41.334 152.458,40.521 152.692 M301.855 153.094 C 303.352 153.868,302.713 156.076,300.991 156.076 C 300.116 156.076,299.657 155.607,299.543 154.598 C 299.387 153.219,300.587 152.439,301.855 153.094 M334.513 153.524 C 336.662 154.167,337.638 156.742,336.446 158.623 C 334.542 161.627,330.000 160.366,330.000 156.833 C 330.000 154.505,332.259 152.848,334.513 153.524 M376.850 154.075 C 378.985 155.487,378.934 158.195,376.746 159.693 C 374.223 161.420,371.115 159.059,371.812 155.945 C 372.291 153.809,374.954 152.820,376.850 154.075 M300.250 157.824 C 301.167 157.826,302.592 157.717,303.417 157.581 C 305.213 157.286,305.216 157.286,305.075 157.514 C 304.266 158.823,296.284 158.748,295.777 157.427 C 295.716 157.268,296.049 157.290,297.140 157.518 C 297.964 157.691,299.299 157.822,300.250 157.824 " stroke="none" fill="#060606" fill-rule="evenodd"/></g></svg>